M48
;DRILL file {KiCad 4.0.1-stable} date 2016 October 24, Monday 13:29:55
;FORMAT={3:3/ absolute / metric / suppress trailing zeros}
FMAT,2
METRIC,LZ
T1C0.900
T2C1.001
T3C1.016
T4C1.270
%
G90
G05
M71
T1
X1375Y-10525
X1375Y-11025
X153Y-10525
X153Y-11025
T2
X1335Y-10259
X1335Y-11275
X13642Y-098
X13896Y-098
X1415Y-098
X1415Y-10259
X1415Y-11275
X149Y-10275
X149Y-11291
X15042Y-098
X15296Y-098
X1555Y-098
X15675Y-10275
X15675Y-11291
T3
X13588Y-1185
X13842Y-1185
X14096Y-1185
X1435Y-1185
X1485Y-1185
X15104Y-1185
X15358Y-1185
X15612Y-1185
T4
X1445Y-10259
X1445Y-11275
X15975Y-10275
X15975Y-11291
T0
M30
